# xmcd CD database file
#
# Track frame offsets:
#	150
#	23255
#	44350
#	67345
#
# Disc length: 1173 seconds
#
# Revision: 0
# Processed by: cddbd v1.5.1PL0 Copyright (c) Steve Scherf et al.
# Submitted via: CDex 1.51
#
DISCID=2d049304
DTITLE=Rin' featuring m.c.A.T - Flashback
DYEAR=2005
DGENRE=JPop
TTITLE0=Flashback
TTITLE1=Flashback RIDER CHIPS version
TTITLE2=Flashback instrumental
TTITLE3=Flashback RIDER CHIPS version instrumental
EXTD=YEAR: 2005
EXTT0=
EXTT1=
EXTT2=
EXTT3=
PLAYORDER=
